<svg width="1000" height="1000" viewBox="0 0 1000 1000" fill="none" xmlns="http://www.w3.org/2000/svg">
<rect width="1000" height="1000" fill="white"/>
<path d="M652.1 531.4H829.3C851.8 531.4 870.1 549.7 870.1 572.2V661C870.1 683.5 851.8 701.8 829.3 701.8H652.1C629.6 701.8 611.3 683.5 611.3 661V572.2C611.3 549.6 629.6 531.4 652.1 531.4Z" fill="#6C32AD"/>
<path d="M829.3 703.3H652.1C628.8 703.3 609.8 684.4 609.8 661V572.2C609.8 548.9 628.7 529.9 652.1 529.9H829.3C852.6 529.9 871.6 548.8 871.6 572.2V661C871.5 684.3 852.6 703.3 829.3 703.3ZM652.1 532.9C630.4 532.9 612.8 550.5 612.8 572.2V661C612.8 682.7 630.4 700.3 652.1 700.3H829.3C851 700.3 868.6 682.7 868.6 661V572.2C868.6 550.5 851 532.9 829.3 532.9H652.1Z" fill="#1D1F1C"/>
<path d="M635.8 725.6H635.7C609.2 723.5 588.7 701.4 588.6 674.8V559.6C588.6 558.8 589.3 558.1 590.1 558.1C590.9 558.1 591.6 558.8 591.6 559.6V674.8C591.7 699.9 611 720.7 635.9 722.6C636.7 722.6 637.4 723.3 637.3 724.2C637.2 725.1 636.6 725.6 635.8 725.6Z" fill="#1D1D1B"/>
<path d="M843.5 725.7H840.5C839.7 725.7 839 725 839 724.2C839 723.4 839.7 722.7 840.5 722.7H843.5C870 722.7 891.5 701.2 891.5 674.7V559.6C891.5 533.1 870 511.6 843.5 511.6H667.7C666.9 511.6 666.2 510.9 666.2 510.1C666.2 509.3 666.9 508.6 667.7 508.6H843.6C871.8 508.6 894.6 531.4 894.6 559.6V674.8C894.5 702.9 871.7 725.7 843.5 725.7Z" fill="#1D1D1B"/>
<path d="M756.9 569.9L688.1 615.3C684.9 617.4 684.1 621.6 686.2 624.8C686.8 625.6 687.5 626.3 688.3 626.9L757.1 668.6C760.3 670.6 764.5 669.5 766.5 666.3C767.2 665.2 767.5 664 767.5 662.7V575.6C767.5 571.8 764.4 568.8 760.7 568.8C759.3 568.8 758 569.2 756.9 569.9Z" fill="#D9CFFF"/>
<path d="M760.7 671.1C759.2 671.1 757.7 670.7 756.4 669.9L687.7 628.2C683.8 625.8 682.5 620.7 684.9 616.8C685.5 615.7 686.4 614.8 687.5 614.1L756.2 568.7C760 566.2 765.2 567.2 767.8 571.1C768.7 572.5 769.2 574.1 769.2 575.7V662.9C769.2 665.9 767.6 668.7 764.9 670.2C763.5 670.8 762.1 671.2 760.7 671.1ZM757.7 571.1L689 616.6C686.5 618.2 685.9 621.6 687.5 624C687.9 624.6 688.5 625.2 689.1 625.6L757.8 667.3C760.3 668.8 763.6 668 765.1 665.5C765.6 664.7 765.9 663.7 765.9 662.7V575.6C765.9 572.6 763.5 570.3 760.5 570.3C759.6 570.3 758.6 570.6 757.7 571.1Z" fill="#1D1E1B"/>
<path d="M299.5 317.4H601.3C634.2 317.4 661 344.1 661 377V586C661 618.9 634.3 645.7 601.3 645.7H299.5C266.6 645.7 239.9 619 239.9 586V377C239.8 344.1 266.5 317.4 299.5 317.4Z" fill="#D9CFFF"/>
<path d="M601.2 317.4C634.1 317.4 660.9 344.1 660.9 377V586C660.9 618.9 634.2 645.7 601.3 645.7H299.5C266.6 645.7 239.8 619 239.8 586V377C239.8 344.1 266.5 317.4 299.5 317.4H601.2ZM601.2 314.4H299.5C264.9 314.4 236.9 342.5 236.8 377V586C236.8 620.6 264.9 648.6 299.5 648.7H601.3C635.9 648.7 663.9 620.6 664 586V377C663.9 342.5 635.8 314.4 601.2 314.4Z" fill="#1D1E1B"/>
<path d="M239.8 586.1V544L343 463.1L414.9 507.6L502.9 397.8L660.9 523.9V586.1C660.9 619 634.2 645.8 601.3 645.8H299.5C266.5 645.7 239.8 619 239.8 586.1Z" fill="white"/>
<path d="M601.2 647.2H299.5C265.7 647.2 238.4 619.8 238.3 586V543.2L238.9 542.7L342.9 461.2L414.6 505.5L502.7 395.6L503.9 396.5L662.4 523V585.9C662.4 619.8 635 647.2 601.2 647.2ZM241.3 544.7V586.1C241.3 618.2 267.4 644.2 299.5 644.3H601.3C633.4 644.3 659.4 618.3 659.5 586.1V524.6L503.1 399.9L415.2 509.5L343.1 464.9L241.3 544.7Z" fill="#1D1F1C"/>
<path d="M380.8 413C394.386 413 405.4 401.986 405.4 388.4C405.4 374.814 394.386 363.8 380.8 363.8C367.214 363.8 356.2 374.814 356.2 388.4C356.2 401.986 367.214 413 380.8 413Z" fill="white"/>
<path d="M380.8 414.5C366.4 414.5 354.7 402.8 354.7 388.4C354.7 374 366.4 362.3 380.8 362.3C395.2 362.3 406.9 374 406.9 388.4C406.9 402.8 395.2 414.5 380.8 414.5ZM380.8 365.3C368 365.3 357.7 375.6 357.7 388.4C357.7 401.2 368 411.5 380.8 411.5C393.6 411.5 403.9 401.2 403.9 388.4C403.9 375.6 393.6 365.3 380.8 365.3Z" fill="#1D1F1C"/>
<path d="M333.9 368.4C333.3 368.4 332.8 368.1 332.5 367.6C298.6 297.9 232.5 249.7 183 221.5C129.4 190.9 83.2 176.6 82.7 176.5C81.9 176.3 81.4 175.5 81.6 174.7C81.8 173.9 82.6 173.4 83.4 173.6C83.5 173.6 83.5 173.6 83.6 173.7C84.1 173.8 130.6 188.2 184.5 219C216.2 237.1 244.2 257.2 267.8 278.8C297.3 305.8 320 335.3 335.1 366.4C335.5 367.2 335.1 368.1 334.4 368.4C334.4 368.3 334.2 368.4 333.9 368.4Z" fill="#1D1E1B"/>
<path d="M299.1 375.6C298.5 375.6 298 375.3 297.8 374.8C274.4 330.3 189.1 299.1 188.3 298.8C187.5 298.5 187.1 297.7 187.4 296.9C187.7 296.1 188.5 295.7 189.3 296C192.9 297.3 276.5 327.9 300.5 373.5C300.9 374.2 300.6 375.1 299.9 375.5C299.6 375.5 299.4 375.6 299.1 375.6Z" fill="#1D1E1B"/>
<path d="M640.1 486.9C637.9 486.9 636.1 485.1 636.1 482.9L635.5 382.8C635.5 380.6 637.3 378.8 639.5 378.8C641.7 378.8 643.5 380.6 643.5 382.8L644.1 482.9C644.1 485.1 642.3 486.9 640.1 486.9Z" fill="white"/>
<path d="M595.1 890.6C617.6 860 590 715 519.4 723.8L514.4 701.8L426.3 710.7L429.3 728.1C429.3 728.1 401 731.1 391.1 767.3C375.7 823.6 391.1 885.3 395.6 891.9L595.1 890.6Z" fill="#FFAD00"/>
<path d="M514.4 701.8L519.4 723.8C521.4 723.6 523.5 723.4 525.5 723.4C591.6 723.4 616.9 860.9 595 890.5L395.6 891.8C391.1 885.3 375.7 823.5 391.1 767.2C401 731 429.3 728 429.3 728L426.3 710.6L514.4 701.8ZM514.5 698.9H514.2L426 707.7C424.4 707.9 423.2 709.3 423.3 711C423.3 711.1 423.3 711.1 423.3 711.2L425.8 725.7C421 726.9 416.4 728.9 412.3 731.6C404.3 736.7 393.6 746.9 388.2 766.5C379.9 797.1 380.7 828 382.9 848.5C385.4 871.8 390.4 889.6 393.2 893.5C393.8 894.3 394.7 894.8 395.7 894.8L595.1 893.5C596 893.5 596.9 893 597.5 892.3C604.6 882.7 607.3 863 605 838.3C602.6 813.4 595.3 787.4 585.1 767C578 753 569.7 741.9 560.4 734C549.8 725 538.1 720.4 525.6 720.4C524.3 720.4 523.1 720.4 521.8 720.5L517.4 701.1C517 699.8 515.8 698.8 514.5 698.9Z" fill="#1D1E1B"/>
<path d="M514.9 704.3L426.3 710.7L430 728C450 740 494 739 519 724L514.9 704.3Z" fill="#E89D00"/>
<path d="M560.2 858.5C564.563 858.5 568.1 854.963 568.1 850.6C568.1 846.237 564.563 842.7 560.2 842.7C555.837 842.7 552.3 846.237 552.3 850.6C552.3 854.963 555.837 858.5 560.2 858.5Z" fill="#FFC140"/>
<path d="M427.9 778.4C432.263 778.4 435.8 774.863 435.8 770.5C435.8 766.137 432.263 762.6 427.9 762.6C423.537 762.6 420 766.137 420 770.5C420 774.863 423.537 778.4 427.9 778.4Z" fill="#FFC140"/>
<path d="M464.9 854.4C469.263 854.4 472.8 850.863 472.8 846.5C472.8 842.137 469.263 838.6 464.9 838.6C460.537 838.6 457 842.137 457 846.5C457 850.863 460.537 854.4 464.9 854.4Z" fill="#FFC140"/>
<path d="M540.9 774.3C545.263 774.3 548.8 770.763 548.8 766.4C548.8 762.037 545.263 758.5 540.9 758.5C536.537 758.5 533 762.037 533 766.4C533 770.763 536.537 774.3 540.9 774.3Z" fill="#FFC140"/>
<path d="M427.2 711.7C427.2 711.7 319.4 652.3 387 617.7L382.2 553.4C382.2 553.4 409.9 529.2 430.1 577.5C430.1 577.5 453.8 573.9 469.7 589.3C469.7 589.3 487.4 578.8 508.5 614.1C529.6 649.4 513.7 701.4 513.7 701.4L427.2 711.7Z" fill="#FFCDB2"/>
<path d="M426.8 713.7L426.2 713.4C423.6 712 362.2 677.7 362.7 645.1C362.9 633.8 370.3 624.2 384.9 616.5L380.2 552.6L381 551.9C381.4 551.5 391.4 543 404.1 546C414.9 548.5 424.1 558.4 431.5 575.4C437.1 574.9 456.1 574.2 470.3 587C474 585.7 478.1 585.5 481.9 586.6C491.8 589.1 501.4 598 510.4 613.2C531.7 648.9 516.4 700 515.8 702.1L515.4 703.4L426.8 713.7ZM384.3 554.4L389.1 618.9L387.9 619.5C374 626.6 366.9 635.3 366.7 645.2C366.2 673.9 421.4 706.1 427.6 709.6L512.2 699.7C514.4 691.6 525.5 646.4 506.9 615.2C487.2 582.2 471.5 590.7 470.9 591.1L469.6 591.9L468.5 590.9C453.5 576.4 430.8 579.6 430.5 579.6L429 579.8L428.4 578.4C421.5 561.8 413 552.2 403.3 550C394.3 547.8 386.7 552.7 384.3 554.4Z" fill="#1D1E1B"/>
<path d="M392 639.1C392 639.9 391.4 640.6 390.6 640.7C389.8 640.8 389.1 640.1 389 639.3L385.5 618C385.4 617.2 385.9 616.4 386.8 616.3C387.7 616.2 388.4 616.7 388.5 617.6L392 638.9C392 638.8 392 639 392 639.1Z" fill="black"/>
<path d="M443.1 627.4C443 629.7 442.7 631.9 442.3 634.2C442.2 635 441.4 635.6 440.6 635.5C439.8 635.4 439.2 634.6 439.3 633.8V633.7C439.3 633.4 444.5 605.9 428.5 578.9C428.1 578.2 428.3 577.3 429 576.8C429.7 576.4 430.6 576.6 431.1 577.3C440 592.4 444.2 609.9 443.1 627.4Z" fill="black"/>
<path d="M481.4 634.3C481.2 637.5 480.9 639.6 480.8 639.9C480.7 640.7 479.9 641.3 479.1 641.2C478.3 641.1 477.7 640.3 477.8 639.5C477.8 639.2 482.3 608.5 467.5 589.5C467 588.8 467.1 587.9 467.8 587.4C468.5 586.9 469.4 587 469.9 587.7C481.8 602.8 482 624.2 481.4 634.3Z" fill="black"/>
<path d="M513.3 656.8C512.5 669.6 508 677.3 507.8 677.6C507.4 678.3 506.5 678.6 505.7 678.1C505 677.7 504.7 676.8 505.2 676C505.4 675.7 523 644.4 491.6 604C491.1 603.3 491.2 602.4 491.9 601.9C492.6 601.4 493.5 601.5 494 602.2C511.1 624.2 514 643.4 513.4 655.7L513.3 656.8Z" fill="white"/>
<path d="M473.4 635.4C473.3 636.8 473.2 637.7 473.2 637.9C473.1 638.7 472.4 639.3 471.6 639.2C470.8 639.1 470.2 638.4 470.2 637.6C470.2 637.2 474 597.1 457.8 588.4C457.1 588 456.8 587.1 457.2 586.4C457.6 585.7 458.5 585.4 459.2 585.8C474.8 594.1 474 626.1 473.4 635.4Z" fill="white"/>
<path d="M433.7 626.1C433.7 626.9 433.1 627.5 432.3 627.5C431.5 627.6 430.8 626.9 430.7 626.1C430.7 625.6 427.3 575.2 406 560.3C405.3 559.9 405.1 558.9 405.5 558.2C405.9 557.5 406.9 557.3 407.6 557.7L407.7 557.8C430.2 573.5 433.5 623.7 433.7 625.8C433.7 625.9 433.7 626 433.7 626.1Z" fill="white"/>
<path d="M829 894H125C123.9 894 123 893.1 123 892C123 890.9 123.9 890 125 890H829C830.1 890 831 890.9 831 892C831 893.1 830.1 894 829 894Z" fill="#1D1D1B"/>
<path d="M211 919H74C72.9 919 72 918.1 72 917C72 915.9 72.9 915 74 915H211C212.1 915 213 915.9 213 917C213 918.1 212.1 919 211 919Z" fill="#1D1D1B"/>
<path d="M883 930H775C773.9 930 773 929.1 773 928C773 926.9 773.9 926 775 926H883C884.1 926 885 926.9 885 928C885 929.1 884.1 930 883 930Z" fill="#1D1D1B"/>
<path d="M701 179.1H770C786.5 179.1 799.8 192.5 799.8 208.9V269.1C799.8 285.6 786.4 298.9 770 298.9H701C684.5 298.9 671.2 285.5 671.2 269.1V208.9C671.2 192.4 684.5 179.1 701 179.1Z" fill="#FFAD00"/>
<path d="M770 300.7H701C683.5 300.7 669.4 286.5 669.4 269.1V208.9C669.4 191.4 683.6 177.3 701 177.3H770C787.5 177.3 801.6 191.5 801.6 208.9V269.1C801.6 286.6 787.5 300.7 770 300.7ZM701 180.9C685.6 180.9 673 193.5 673 208.9V269.1C673 284.5 685.6 297.1 701 297.1H770C785.4 297.1 798 284.5 798 269.1V209C798 193.6 785.4 181 770 181L701 180.9Z" fill="black"/>
<path d="M736 275H735.7C734.3 274.9 733 274.1 732.3 272.8L699.6 213.8C698.5 211.8 699.2 209.2 701.2 208.1C703.2 207 705.8 207.7 706.9 209.7L736.4 263L760.2 230.3C761.6 228.4 764.2 228 766.1 229.4C768 230.8 768.4 233.4 767 235.3L739.3 273.3C738.6 274.3 737.3 275 736 275Z" fill="white"/>
<path d="M658.1 212.3C657.1 212.3 656.3 211.5 656.3 210.5C656.7 188 662.8 172.4 674.4 164.2C689.5 153.5 708.1 159.6 708.9 159.8C709.9 160.1 710.4 161 710.2 162C709.9 163 709 163.5 708 163.3C707.9 163.3 707.8 163.3 707.8 163.2C707.6 163.1 690.1 157.5 676.5 167.1C665.9 174.6 660.4 189.2 660 210.5C659.9 211.5 659.1 212.3 658.1 212.3Z" fill="black"/>
<path d="M768 210C766.9 210 766 209.1 766 208C766 207.1 766.6 206.3 767.5 206.1C817.9 193.4 848.8 157.8 865.8 130.2C884.3 100.2 890.9 72.8 891 72.6C891.3 71.5 892.3 70.9 893.4 71.1C894.5 71.3 895.1 72.4 894.9 73.5C894.8 73.8 888.1 101.7 869.3 132.2C851.9 160.5 820.3 196.9 768.5 210C768.3 210 768.2 210 768 210Z" fill="#1D1D1B"/>
<path d="M791 221.3C787.7 221.3 784.4 221.2 780.9 221C779.8 220.9 779 220 779 218.9C779 217.8 780 217 781.1 217C822.3 219.6 850 205.8 866 193.9C883.4 180.9 891.2 167.2 891.2 167C891.7 166 893 165.7 893.9 166.2C894.9 166.7 895.2 168 894.7 168.9C894.4 169.5 886.5 183.4 868.5 196.9C853.3 208.4 827.9 221.3 791 221.3Z" fill="#1D1D1B"/>
</svg>
